<svg width="132" height="48" viewBox="0 0 132 48" xmlns="http://www.w3.org/2000/svg" role="img" aria-label="Visa">
  <defs>
    <linearGradient id="visaGlow" x1="0" y1="0" x2="1" y2="1">
      <stop offset="0" stop-color="#1a57d7" />
      <stop offset="1" stop-color="#123f9d" />
    </linearGradient>
  </defs>
  <rect x="0.5" y="0.5" width="131" height="47" rx="10" fill="rgba(255,255,255,0.92)" stroke="rgba(6,18,42,0.1)" />
  <path d="M45.8 33.8h-7.2l4.5-19.7h7.2l-4.5 19.7zm30.4-19.2c-1.4-.5-3.6-1.1-6.3-1.1-7 0-11.9 3.5-11.9 8.6-.1 3.7 3.5 5.8 6.1 6.9 2.7 1.2 3.6 2 3.6 3.1 0 1.7-2.1 2.5-4.1 2.5-2.7 0-4.2-.4-6.5-1.4l-.9-.4-.9 5.6c1.6.7 4.6 1.3 7.7 1.3 7.4 0 12.2-3.5 12.3-9 0-2.9-1.8-5.2-5.8-7-2.4-1.1-3.9-1.8-3.9-2.8 0-1 .9-2 2.9-2 1.7 0 2.9.3 3.9.8l.5.2 1.4-5.3zM95.2 14.1h-5.6c-1.7 0-3 .5-3.8 2.2l-10.7 17.5h7.4s1.2-2.2 1.5-2.7h9l.9 2.7h6.5l-5.2-19.7zm-8.9 12.1c.6-1.2 2.8-5.4 2.8-5.4-.1.2.6-1.2 1-2l.5 1.8s1.3 4.4 1.6 5.6h-5.9zm-49.9-12.1l-7 13.4-.7-3.3c-1.3-4.2-5.2-8.7-9.6-11L25.5 33.8h7.5l11.2-19.7h-7.8z" fill="url(#visaGlow)" />
</svg>
